<?xml version="1.0" standalone="no"?>
<!DOCTYPE svg PUBLIC "-//W3C//DTD SVG 20010904//EN"
 "http://www.w3.org/TR/2001/REC-SVG-20010904/DTD/svg10.dtd">
<svg version="1.0" xmlns="http://www.w3.org/2000/svg"
 width="212.000000pt" height="212.000000pt" viewBox="0 0 212.000000 212.000000"
 preserveAspectRatio="xMidYMid meet">
<metadata>
Created by potrace 1.14, written by Peter Selinger 2001-2017
</metadata>
<g transform="translate(0.000000,212.000000) scale(0.100000,-0.100000)"
fill="#000000" stroke="none">
<path d="M646 1915 c-20 -21 -18 -13 -155 -565 l-118 -475 -186 0 -187 0 0
-66 0 -66 224 1 c197 1 226 3 243 18 17 15 33 62 47 133 3 11 39 160 82 330
l78 310 18 -100 c9 -55 20 -116 23 -135 5 -31 9 -58 21 -122 1 -9 6 -38 10
-65 3 -26 8 -57 11 -68 2 -11 6 -36 9 -55 2 -19 6 -42 9 -50 2 -8 7 -35 10
-60 4 -25 18 -110 31 -190 14 -80 27 -158 29 -173 2 -16 6 -40 9 -55 3 -15 8
-40 10 -57 2 -16 8 -50 12 -75 4 -25 8 -48 8 -52 1 -4 9 -16 18 -28 20 -23 66
-27 91 -7 10 7 54 144 119 370 56 196 105 354 109 350 3 -5 19 -47 34 -95 30
-98 47 -117 102 -125 l40 -5 0 -227 c0 -146 4 -235 12 -248 14 -28 58 -42 122
-38 84 4 93 23 90 186 l-1 65 94 1 c123 0 159 8 233 49 107 60 162 148 168
268 7 165 -79 287 -242 340 -43 14 -84 17 -244 14 l-192 -3 -19 -26 c-16 -21
-20 -44 -21 -132 0 -59 -4 -104 -7 -100 -4 5 -26 67 -49 138 -67 209 -78 233
-111 240 -37 8 -64 -7 -78 -42 -6 -15 -39 -125 -72 -243 -34 -118 -73 -253
-87 -300 -26 -83 -27 -84 -34 -50 -4 19 -9 53 -12 75 -3 22 -15 92 -26 155
-11 63 -22 133 -26 155 -5 39 -8 56 -20 115 -2 14 -7 45 -10 70 -3 25 -8 52
-10 60 -3 8 -7 32 -9 54 -3 21 -8 46 -10 55 -3 9 -8 36 -11 61 -5 42 -7 60
-20 120 -3 14 -7 43 -11 65 -5 39 -30 191 -40 250 -3 17 -13 38 -21 48 -20 21
-66 22 -87 2z"/>
</g>
</svg>
